# xmcd
#
# Track frame offsets:
# 150
# 19042
# 44020
# 64840
# 82095
# 105787
# 125542
# 149612
# 171577
# 197585
# 217995
# 234827
# 248620
# 269645
# 292777
#
# Disc length: 4080 seconds
#
# Revision: 1
# Processed by: cddbd v1.5.1PL0 Copyright (c) Steve Scherf et al.
# Submitted via: Easy CD Ripper v2.35
#
DISCID=d80fee0f
DTITLE=Joe Satriani - Crystal Planet
DYEAR=1998
DGENRE=Blues
TTITLE0=Up In The Sky
TTITLE1=House Full of Bullets
TTITLE2=Crystal Planet
TTITLE3=Love Thing
TTITLE4=Trundrumbailand
TTITLE5=Lights of Heaven
TTITLE6=Raspberry Jam Delta-V
TTITLE7=Ceremony
TTITLE8=With Jupiter in MInd
TTITLE9=Secret Player
TTITLE10=A Train of Angels
TTITLE11=A Piece of Liquid
TTITLE12=Psycho Monkey
TTITLE13=Time
TTITLE14=Z.Z.'s Song
EXTD=
EXTT0=
EXTT1=
EXTT2=
EXTT3=
EXTT4=
EXTT5=
EXTT6=
EXTT7=
EXTT8=
EXTT9=
EXTT10=
EXTT11=
EXTT12=
EXTT13=
EXTT14=
PLAYORDER=
